<svg width="43" height="42" viewBox="0 0 43 42" fill="none" xmlns="http://www.w3.org/2000/svg">
<path d="M0 10.08C0 6.55167 0 4.7875 0.692137 3.43986C1.30096 2.25444 2.27242 1.29066 3.4673 0.686659C4.8257 0 6.60393 0 10.1604 0H32.1746C35.7311 0 37.5093 0 38.8677 0.686659C40.0626 1.29066 41.0341 2.25444 41.6429 3.43986C42.335 4.7875 42.335 6.55167 42.335 10.08V31.92C42.335 35.4483 42.335 37.2125 41.6429 38.5601C41.0341 39.7456 40.0626 40.7093 38.8677 41.3133C37.5093 42 35.7311 42 32.1746 42H10.1604C6.60393 42 4.8257 42 3.4673 41.3133C2.27242 40.7093 1.30096 39.7456 0.692137 38.5601C0 37.2125 0 35.4483 0 31.92V10.08Z" fill="#3F93F5"/>
<path d="M21.4871 27.1898L13.4865 22.676V27.5348L21.4871 31.9227L29.4877 27.5348V22.676L21.4871 27.1898Z" fill="white"/>
<path d="M21.4874 11.1516L34.3009 18.3807L21.4874 25.6097L8.67393 18.3807L21.4874 11.1516Z" fill="white"/>
</svg>
