<svg width="232" height="40" viewBox="0 0 232 40" fill="none" xmlns="http://www.w3.org/2000/svg">
<path d="M52.0314 29.6245L52.6237 26.859C52.8929 27.0233 53.1711 27.1055 53.4582 27.1055C54.0505 27.1055 54.4633 26.8225 54.6966 26.2566L55.962 23.053L50.0392 10.4577H53.2698L57.3888 19.4661L60.9963 10.4577H63.9577L57.2004 27.434C56.5183 29.1499 55.4235 30.0079 53.9159 30.0079C53.3057 30.0079 52.6775 29.8801 52.0314 29.6245Z" fill="#2F3031"/>
<path d="M65.1414 20.4792V16.0434H67.7798V20.2602C67.7798 21.2824 68.0221 22.0673 68.5066 22.6149C68.9912 23.1443 69.6733 23.409 70.5527 23.409C71.5039 23.409 72.2488 23.0622 72.7872 22.3685C73.3256 21.6566 73.5949 20.6983 73.5949 19.4935V16.0434H76.2332V29.6245H73.5949V23.765C73.2538 24.4221 72.7603 24.9423 72.1142 25.3257C71.468 25.6908 70.7411 25.8733 69.9335 25.8733C68.5156 25.8733 67.358 25.4078 66.4606 24.4769C65.5812 23.5459 65.1414 22.2133 65.1414 20.4792Z" fill="#2F3031"/>
<path d="M91.4105 23.4364H80.8303C80.8662 24.6411 81.261 25.636 82.0148 26.4209C82.7686 27.1876 83.7288 27.5709 84.8955 27.5709C85.9005 27.5709 86.6992 27.3336 87.2915 26.859C87.9017 26.3662 88.4312 25.6634 88.8799 24.7507L91.0067 26.0376C90.3606 27.3701 89.535 28.365 88.5299 29.0221C87.5428 29.6793 86.3044 30.0079 84.8147 30.0079C82.9481 30.0079 81.3597 29.3416 80.0495 28.009C78.7394 26.6582 78.0843 24.9332 78.0843 22.834C78.0843 20.7348 78.7394 19.0189 80.0495 17.6863C81.3777 16.3355 83.0109 15.6601 84.9493 15.6601C86.8697 15.6601 88.4222 16.299 89.6068 17.5768C90.8093 18.8363 91.4105 20.4609 91.4105 22.4506V23.4364ZM84.8955 17.9054C83.9083 17.9054 83.0468 18.2248 82.311 18.8637C81.5751 19.5026 81.0815 20.3149 80.8303 21.3006H88.7991C88.6914 20.2419 88.2517 19.4113 87.4799 18.8089C86.7261 18.2066 85.8646 17.9054 84.8955 17.9054Z" fill="#2F3031"/>
<path d="M103.369 9.99219L104.177 12.0732C103.387 12.6025 102.427 12.8672 101.296 12.8672C97.7962 12.8672 95.8309 14.9117 95.4002 19.0006C95.8848 18.1792 96.5399 17.5312 97.3655 17.0565C98.1911 16.5637 99.1064 16.3173 100.111 16.3173C101.87 16.3173 103.333 16.947 104.5 18.2066C105.684 19.4478 106.277 21.0725 106.277 23.0804C106.277 25.1066 105.639 26.7678 104.365 28.0638C103.109 29.3599 101.529 30.0079 99.6269 30.0079C97.4373 30.0079 95.7232 29.1864 94.4848 27.5436C93.2644 25.8824 92.6542 23.6463 92.6542 20.8352C92.6542 18.6082 93.0849 16.5911 93.9464 14.7839C94.6643 13.3053 95.6604 12.2192 96.9347 11.5255C98.227 10.8136 99.6359 10.4577 101.161 10.4577C101.987 10.4577 102.723 10.3025 103.369 9.99219ZM102.481 20.0411C101.709 19.2014 100.758 18.7816 99.6269 18.7816C98.4962 18.7816 97.545 19.2014 96.7732 20.0411C96.0014 20.8625 95.6156 21.903 95.6156 23.1626C95.6156 24.4221 96.0014 25.4717 96.7732 26.3114C97.545 27.1328 98.4962 27.5436 99.6269 27.5436C100.758 27.5436 101.709 27.1328 102.481 26.3114C103.27 25.4717 103.665 24.4221 103.665 23.1626C103.665 21.903 103.27 20.8625 102.481 20.0411Z" fill="#2F3031"/>
<path d="M110.663 16.0434V21.2459H116.64V16.0434H119.278V29.6245H116.64V23.6554H110.663V29.6245H108.025V16.0434H110.663Z" fill="#2F3031"/>
<path d="M134.805 29.6245V16.0434H137.551V29.6245H134.805ZM121.828 16.0434H124.467V21.4649H127.94C129.393 21.4649 130.533 21.83 131.359 22.5602C132.184 23.2721 132.597 24.2578 132.597 25.5174C132.597 26.7951 132.175 27.7991 131.332 28.5293C130.488 29.2595 129.358 29.6245 127.94 29.6245H121.828V16.0434ZM124.467 23.6554V27.3793H127.832C129.25 27.3793 129.959 26.7586 129.959 25.5174C129.959 24.2761 129.25 23.6554 127.832 23.6554H124.467Z" fill="#2F3031"/>
<path d="M142.74 16.0434V25.8733L148.77 16.0434H151.678V29.6245H149.04V19.7947L143.009 29.6245H140.102V16.0434H142.74ZM146.913 11.1696H148.797C148.797 12.0275 148.528 12.7394 147.99 13.3053C147.469 13.8529 146.769 14.1268 145.89 14.1268C145.01 14.1268 144.301 13.8529 143.763 13.3053C143.242 12.7394 142.982 12.0275 142.982 11.1696H144.867C144.867 11.9545 145.208 12.347 145.89 12.347C146.572 12.347 146.913 11.9545 146.913 11.1696Z" fill="#2F3031"/>
<path d="M154.809 29.6245L155.402 26.859C155.671 27.0233 155.949 27.1055 156.236 27.1055C156.828 27.1055 157.241 26.8225 157.475 26.2566L158.74 23.053L152.817 10.4577H156.048L160.167 19.4661L163.774 10.4577H166.736L159.978 27.434C159.296 29.1499 158.201 30.0079 156.694 30.0079C156.084 30.0079 155.455 29.8801 154.809 29.6245Z" fill="#2F3031"/>
<path d="M166.421 29.6245V16.0434H175.036V18.5625H169.167V29.6245H166.421Z" fill="#2F3031"/>
<path d="M189.478 22.834C189.478 25.0792 188.76 26.8408 187.324 28.1186C185.907 29.3781 184.246 30.0079 182.344 30.0079C180.441 30.0079 178.772 29.3781 177.336 28.1186C175.919 26.8408 175.21 25.0792 175.21 22.834C175.21 20.6252 175.919 18.882 177.336 17.6042C178.772 16.3081 180.441 15.6601 182.344 15.6601C184.246 15.6601 185.907 16.3081 187.324 17.6042C188.76 18.882 189.478 20.6252 189.478 22.834ZM179.275 26.1471C180.118 27.0051 181.141 27.434 182.344 27.434C183.546 27.434 184.569 27.0051 185.413 26.1471C186.257 25.2892 186.678 24.1848 186.678 22.834C186.678 21.4832 186.257 20.3788 185.413 19.5209C184.569 18.6629 183.546 18.2339 182.344 18.2339C181.141 18.2339 180.118 18.6629 179.275 19.5209C178.431 20.3788 178.009 21.4832 178.009 22.834C178.009 24.1848 178.431 25.2892 179.275 26.1471Z" fill="#2F3031"/>
<path d="M202.525 16.0434V29.6245H199.779V18.5078H195.068L194.287 26.5305C194.09 28.721 193.112 29.8162 191.353 29.8162C190.743 29.8162 190.195 29.7523 189.711 29.6245L190.114 27.1602C190.384 27.2515 190.617 27.2971 190.814 27.2971C191.281 27.2971 191.559 26.9412 191.649 26.2293L192.645 16.0434H202.525Z" fill="#2F3031"/>
<path d="M218.663 22.834C218.663 25.0792 217.945 26.8408 216.509 28.1186C215.091 29.3781 213.431 30.0079 211.529 30.0079C209.626 30.0079 207.957 29.3781 206.521 28.1186C205.103 26.8408 204.394 25.0792 204.394 22.834C204.394 20.6252 205.103 18.882 206.521 17.6042C207.957 16.3081 209.626 15.6601 211.529 15.6601C213.431 15.6601 215.091 16.3081 216.509 17.6042C217.945 18.882 218.663 20.6252 218.663 22.834ZM208.46 26.1471C209.303 27.0051 210.326 27.434 211.529 27.434C212.731 27.434 213.754 27.0051 214.598 26.1471C215.441 25.2892 215.863 24.1848 215.863 22.834C215.863 21.4832 215.441 20.3788 214.598 19.5209C213.754 18.6629 212.731 18.2339 211.529 18.2339C210.326 18.2339 209.303 18.6629 208.46 19.5209C207.616 20.3788 207.194 21.4832 207.194 22.834C207.194 24.1848 207.616 25.2892 208.46 26.1471Z" fill="#2F3031"/>
<path d="M223.277 16.0434V21.1364L227.854 16.0434H231.192L226.373 21.328L232 29.6245H228.796L224.489 23.3816L223.277 24.6959V29.6245H220.531V16.0434H223.277Z" fill="#2F3031"/>
<path d="M0 10.0644C0 6.85429 0 5.24924 0.629709 4.02315C1.18362 2.94465 2.06746 2.0678 3.15456 1.51828C4.39044 0.893555 6.00828 0.893555 9.24398 0.893555H29.2726C32.5083 0.893555 34.1262 0.893555 35.362 1.51828C36.4491 2.0678 37.333 2.94465 37.8869 4.02315C38.5166 5.24924 38.5166 6.85429 38.5166 10.0644V29.9345C38.5166 33.1446 38.5166 34.7496 37.8869 35.9757C37.333 37.0542 36.4491 37.9311 35.362 38.4806C34.1262 39.1053 32.5083 39.1053 29.2726 39.1053H9.24398C6.00828 39.1053 4.39044 39.1053 3.15456 38.4806C2.06746 37.9311 1.18362 37.0542 0.629709 35.9757C0 34.7496 0 33.1446 0 29.9345V10.0644Z" fill="#3F93F5"/>
<path d="M19.5491 25.6309L12.2701 21.5243V25.9449L19.5491 29.937L26.8281 25.9449V21.5243L19.5491 25.6309Z" fill="white"/>
<path d="M19.5493 11.0394L31.207 17.6164L19.5493 24.1933L7.89157 17.6164L19.5493 11.0394Z" fill="white"/>
</svg>
