<svg width="371" height="59" viewBox="0 0 371 59" fill="none" xmlns="http://www.w3.org/2000/svg">
<path d="M0 16C0 10.3995 0 7.59921 1.08993 5.46009C2.04867 3.57847 3.57847 2.04867 5.46009 1.08993C7.59921 0 10.3995 0 16 0H41.7568C47.3574 0 50.1576 0 52.2967 1.08993C54.1784 2.04867 55.7082 3.57847 56.6669 5.46009C57.7568 7.59921 57.7568 10.3995 57.7568 16V42.0986C57.7568 47.6991 57.7568 50.4994 56.6669 52.6385C55.7082 54.5201 54.1784 56.0499 52.2967 57.0087C50.1576 58.0986 47.3574 58.0986 41.7568 58.0986H16C10.3995 58.0986 7.59921 58.0986 5.46009 57.0087C3.57847 56.0499 2.04867 54.5201 1.08993 52.6385C0 50.4994 0 47.6991 0 42.0986V16Z" fill="white"/>
<path d="M29.3143 37.6116L18.3993 31.3677V38.089L29.3143 44.1587L40.2294 38.089V31.3677L29.3143 37.6116Z" fill="#3F93F5"/>
<path d="M29.3148 15.4263L46.796 25.4262L29.3148 35.4261L11.8337 25.4262L29.3148 15.4263Z" fill="#3F93F5"/>
<path d="M76.6067 42.0493L77.5747 37.6053C78.0147 37.8693 78.4694 38.0013 78.9387 38.0013C79.9067 38.0013 80.5814 37.5466 80.9627 36.6373L83.0307 31.4893L73.3507 11.2493H78.6307L85.3627 25.7253L91.2587 11.2493H96.0987L85.0547 38.5293C83.94 41.2866 82.1507 42.6653 79.6867 42.6653C78.6894 42.6653 77.6627 42.46 76.6067 42.0493Z" fill="white"/>
<path d="M98.0333 27.3533V20.2253H102.345V27.0013C102.345 28.644 102.741 29.9053 103.533 30.7853C104.325 31.636 105.44 32.0613 106.877 32.0613C108.432 32.0613 109.649 31.504 110.529 30.3893C111.409 29.2453 111.849 27.7053 111.849 25.7693V20.2253H116.161V42.0493H111.849V32.6333C111.292 33.6893 110.485 34.5253 109.429 35.1413C108.373 35.728 107.185 36.0213 105.865 36.0213C103.548 36.0213 101.656 35.2733 100.189 33.7773C98.752 32.2813 98.0333 30.14 98.0333 27.3533Z" fill="white"/>
<path d="M140.967 32.1053H123.675C123.733 34.0413 124.379 35.64 125.611 36.9013C126.843 38.1333 128.412 38.7493 130.319 38.7493C131.961 38.7493 133.267 38.368 134.235 37.6053C135.232 36.8133 136.097 35.684 136.831 34.2173L140.307 36.2853C139.251 38.4267 137.901 40.0253 136.259 41.0813C134.645 42.1373 132.621 42.6653 130.187 42.6653C127.136 42.6653 124.54 41.5947 122.399 39.4533C120.257 37.2826 119.187 34.5107 119.187 31.1373C119.187 27.764 120.257 25.0067 122.399 22.8653C124.569 20.6946 127.239 19.6093 130.407 19.6093C133.545 19.6093 136.083 20.636 138.019 22.6893C139.984 24.7133 140.967 27.324 140.967 30.5213V32.1053ZM130.319 23.2173C128.705 23.2173 127.297 23.7306 126.095 24.7573C124.892 25.784 124.085 27.0893 123.675 28.6733H136.699C136.523 26.972 135.804 25.6373 134.543 24.6693C133.311 23.7013 131.903 23.2173 130.319 23.2173Z" fill="white"/>
<path d="M160.511 10.5013L161.831 13.8453C160.541 14.696 158.971 15.1213 157.123 15.1213C151.403 15.1213 148.191 18.4066 147.487 24.9773C148.279 23.6573 149.35 22.616 150.699 21.8533C152.049 21.0613 153.545 20.6653 155.187 20.6653C158.062 20.6653 160.453 21.6773 162.359 23.7013C164.295 25.696 165.263 28.3066 165.263 31.5333C165.263 34.7893 164.222 37.4586 162.139 39.5413C160.086 41.624 157.505 42.6653 154.395 42.6653C150.817 42.6653 148.015 41.3453 145.991 38.7053C143.997 36.036 142.999 32.4426 142.999 27.9253C142.999 24.3466 143.703 21.1053 145.111 18.2013C146.285 15.8253 147.913 14.08 149.995 12.9653C152.107 11.8213 154.41 11.2493 156.903 11.2493C158.253 11.2493 159.455 11 160.511 10.5013ZM159.059 26.6493C157.798 25.3 156.243 24.6253 154.395 24.6253C152.547 24.6253 150.993 25.3 149.731 26.6493C148.47 27.9693 147.839 29.6413 147.839 31.6653C147.839 33.6893 148.47 35.376 149.731 36.7253C150.993 38.0453 152.547 38.7053 154.395 38.7053C156.243 38.7053 157.798 38.0453 159.059 36.7253C160.35 35.376 160.995 33.6893 160.995 31.6653C160.995 29.6413 160.35 27.9693 159.059 26.6493Z" fill="white"/>
<path d="M172.433 20.2253V28.5853H182.201V20.2253H186.513V42.0493H182.201V32.4573H172.433V42.0493H168.12V20.2253H172.433Z" fill="white"/>
<path d="M211.889 42.0493V20.2253H216.377V42.0493H211.889ZM190.681 20.2253H194.993V28.9373H200.669C203.045 28.9373 204.907 29.524 206.257 30.6973C207.606 31.8413 208.281 33.4253 208.281 35.4493C208.281 37.5027 207.591 39.116 206.213 40.2893C204.834 41.4627 202.986 42.0493 200.669 42.0493H190.681V20.2253ZM194.993 32.4573V38.4413H200.493C202.81 38.4413 203.969 37.444 203.969 35.4493C203.969 33.4547 202.81 32.4573 200.493 32.4573H194.993Z" fill="white"/>
<path d="M224.858 20.2253V36.0213L234.714 20.2253H239.466V42.0493H235.154V26.2533L225.298 42.0493H220.546V20.2253H224.858ZM231.678 12.3933H234.758C234.758 13.772 234.318 14.916 233.438 15.8253C232.587 16.7053 231.443 17.1453 230.006 17.1453C228.568 17.1453 227.41 16.7053 226.53 15.8253C225.679 14.916 225.254 13.772 225.254 12.3933H228.334C228.334 13.6546 228.891 14.2853 230.006 14.2853C231.12 14.2853 231.678 13.6546 231.678 12.3933Z" fill="white"/>
<path d="M244.584 42.0493L245.552 37.6053C245.992 37.8693 246.446 38.0013 246.916 38.0013C247.884 38.0013 248.558 37.5466 248.94 36.6373L251.008 31.4893L241.328 11.2493H246.608L253.34 25.7253L259.236 11.2493H264.076L253.032 38.5293C251.917 41.2866 250.128 42.6653 247.664 42.6653C246.666 42.6653 245.64 42.46 244.584 42.0493Z" fill="white"/>
<path d="M263.561 42.0493V20.2253H277.641V24.2733H268.049V42.0493H263.561Z" fill="white"/>
<path d="M301.245 31.1373C301.245 34.7453 300.072 37.576 297.725 39.6293C295.408 41.6533 292.695 42.6653 289.585 42.6653C286.476 42.6653 283.748 41.6533 281.401 39.6293C279.084 37.576 277.925 34.7453 277.925 31.1373C277.925 27.588 279.084 24.7866 281.401 22.7333C283.748 20.6506 286.476 19.6093 289.585 19.6093C292.695 19.6093 295.408 20.6506 297.725 22.7333C300.072 24.7866 301.245 27.588 301.245 31.1373ZM284.569 36.4613C285.948 37.84 287.62 38.5293 289.585 38.5293C291.551 38.5293 293.223 37.84 294.601 36.4613C295.98 35.0826 296.669 33.308 296.669 31.1373C296.669 28.9666 295.98 27.192 294.601 25.8133C293.223 24.4347 291.551 23.7453 289.585 23.7453C287.62 23.7453 285.948 24.4347 284.569 25.8133C283.191 27.192 282.501 28.9666 282.501 31.1373C282.501 33.308 283.191 35.0826 284.569 36.4613Z" fill="white"/>
<path d="M322.569 20.2253V42.0493H318.081V24.1853H310.381L309.105 37.0773C308.782 40.5973 307.184 42.3573 304.309 42.3573C303.312 42.3573 302.417 42.2547 301.625 42.0493L302.285 38.0893C302.725 38.236 303.106 38.3093 303.429 38.3093C304.192 38.3093 304.646 37.7373 304.793 36.5933L306.421 20.2253H322.569Z" fill="white"/>
<path d="M348.944 31.1373C348.944 34.7453 347.771 37.576 345.424 39.6293C343.107 41.6533 340.393 42.6653 337.284 42.6653C334.175 42.6653 331.447 41.6533 329.1 39.6293C326.783 37.576 325.624 34.7453 325.624 31.1373C325.624 27.588 326.783 24.7866 329.1 22.7333C331.447 20.6506 334.175 19.6093 337.284 19.6093C340.393 19.6093 343.107 20.6506 345.424 22.7333C347.771 24.7866 348.944 27.588 348.944 31.1373ZM332.268 36.4613C333.647 37.84 335.319 38.5293 337.284 38.5293C339.249 38.5293 340.921 37.84 342.3 36.4613C343.679 35.0826 344.368 33.308 344.368 31.1373C344.368 28.9666 343.679 27.192 342.3 25.8133C340.921 24.4347 339.249 23.7453 337.284 23.7453C335.319 23.7453 333.647 24.4347 332.268 25.8133C330.889 27.192 330.2 28.9666 330.2 31.1373C330.2 33.308 330.889 35.0826 332.268 36.4613Z" fill="white"/>
<path d="M356.486 20.2253V28.4093L363.966 20.2253H369.422L361.546 28.7173L370.742 42.0493H365.506L358.466 32.0173L356.486 34.1293V42.0493H351.998V20.2253H356.486Z" fill="white"/>
</svg>
